<?xml version="1.0" ?><svg width="512px" height="512px" viewBox="0 0 512 512" style="enable-background:new 0 0 512 512;" version="1.1" xml:space="preserve" xmlns="http://www.w3.org/2000/svg" xmlns:xlink="http://www.w3.org/1999/xlink"><style type="text/css">
	.st0{fill:#333333;}
	.st1{fill:none;stroke:#333333;stroke-width:32;stroke-linecap:round;stroke-linejoin:round;stroke-miterlimit:10;}
</style><g id="Layer_1"/><g id="Layer_2"><g><g><path class="st0" d="M360.76,118.53h-40.86c-8.84,0-16,7.16-16,16s7.16,16,16,16h40.86c25.49,0,46.22,20.74,46.22,46.22v209.52     c0,25.49-20.74,46.22-46.22,46.22H151.24c-25.49,0-46.22-20.74-46.22-46.22V196.75c0-25.49,20.74-46.22,46.22-46.22h40.86     c8.84,0,16-7.16,16-16s-7.16-16-16-16h-40.86c-43.13,0-78.22,35.09-78.22,78.22v209.52c0,43.13,35.09,78.22,78.22,78.22h209.52     c43.13,0,78.22-35.09,78.22-78.22V196.75C438.98,153.62,403.89,118.53,360.76,118.53z"/></g><g><path class="st0" d="M189.08,267.9c-6.25-6.25-16.38-6.25-22.63,0c-6.25,6.25-6.25,16.38,0,22.63l78.22,78.22     c0.38,0.38,0.77,0.73,1.18,1.07c0.17,0.14,0.35,0.26,0.52,0.39c0.24,0.18,0.48,0.37,0.74,0.54c0.22,0.15,0.44,0.27,0.66,0.4     c0.23,0.14,0.45,0.28,0.68,0.4c0.23,0.12,0.47,0.23,0.7,0.34c0.24,0.11,0.47,0.23,0.72,0.33c0.23,0.1,0.46,0.17,0.7,0.26     c0.26,0.09,0.51,0.19,0.78,0.27c0.24,0.07,0.47,0.12,0.71,0.18c0.27,0.07,0.53,0.14,0.81,0.2c0.28,0.06,0.56,0.09,0.83,0.13     c0.24,0.03,0.47,0.08,0.71,0.1c0.52,0.05,1.05,0.08,1.58,0.08s1.05-0.03,1.58-0.08c0.24-0.02,0.48-0.07,0.71-0.1     c0.28-0.04,0.56-0.07,0.83-0.13c0.27-0.05,0.54-0.13,0.8-0.2c0.24-0.06,0.48-0.11,0.71-0.18c0.26-0.08,0.52-0.18,0.78-0.27     c0.23-0.08,0.47-0.16,0.7-0.26c0.24-0.1,0.48-0.22,0.72-0.33c0.23-0.11,0.47-0.21,0.7-0.34c0.23-0.12,0.45-0.27,0.68-0.4     c0.22-0.13,0.45-0.26,0.67-0.4c0.25-0.17,0.49-0.36,0.74-0.54c0.17-0.13,0.35-0.25,0.52-0.39c0.41-0.34,0.81-0.69,1.18-1.07     l78.22-78.22c6.25-6.25,6.25-16.38,0-22.63c-6.25-6.25-16.38-6.25-22.63,0L272,318.82V43.5c0-8.84-7.16-16-16-16s-16,7.16-16,16     v275.32L189.08,267.9z"/></g></g></g></svg>